# xmcd CD database file generated by Grip 3.2.0
# 
# Track frame offsets:
#       150
#       18618
#       37742
#       53254
#       62213
#       77421
#       89517
#       109776
#       128882
#       151733
#       166611
#       179922
#       191205
#       211502
#       225976
#       241235
#       263210
#       284556
#       299175
#       309825
#       325977
# 
# Disc length: 4772 seconds
# 
# Revision: 1
# Processed by: cddbd v1.5.1PL2 Copyright (c) Steve Scherf et al.
# Submitted via: Grip 3.2.0
# 
DISCID=1d12a215
DTITLE=Paul Lamb and The King Snakes - Harmonica Man - The Paul Lamb Anthology 
DTITLE=1986 - 2002 Disc Two
DYEAR=1900
DGENRE=Blues
TTITLE0=Harmonica Man
TTITLE1=The Pillow
TTITLE2=Should Be Mine
TTITLE3=John Henry Jumps In
TTITLE4=My Baby Left Me
TTITLE5=Jump For It
TTITLE6=Done Quit Drinkin´
TTITLE7=Please Tell Me
TTITLE8=Millenium Blues
TTITLE9=Look Out Pinetop
TTITLE10=I´m A Bluesman
TTITLE11=No Glue In The World
TTITLE12=Crazy For Me
TTITLE13=Tuesday Blues
TTITLE14=Days Of Jive
TTITLE15=Take Your Time
TTITLE16=Mad About My Baby
TTITLE17=More Than Alright
TTITLE18=I´m Going Down
TTITLE19=Hootin´ And Screamin´
TTITLE20=Makes You Feel Good
EXTD=ID3G: 0
EXTT0=
EXTT1=
EXTT2=
EXTT3=
EXTT4=
EXTT5=
EXTT6=
EXTT7=
EXTT8=
EXTT9=
EXTT10=
EXTT11=
EXTT12=
EXTT13=
EXTT14=
EXTT15=
EXTT16=
EXTT17=
EXTT18=
EXTT19=
EXTT20=
PLAYORDER=
